<svg xmlns="http://www.w3.org/2000/svg" viewBox="0 0 475.79 607.22">
  <defs>
    <style>
      .cls-1 {
        fill: #00a651;
        stroke: #fff;
        stroke-miterlimit: 10;
      }
    </style>
  </defs>
  <g id="Layer_2" data-name="Layer 2">
    <g id="Layer_1-2" data-name="Layer 1">
      <polygon class="cls-1" points="75.58 0.5 25.58 0.5 0.58 43.8 25.58 87.1 75.58 87.1 100.58 43.8 75.58 0.5"/>
      <polygon class="cls-1" points="150.5 43.8 100.5 43.8 75.5 87.1 100.5 130.4 150.5 130.4 175.5 87.1 150.5 43.8"/>
      <polygon class="cls-1" points="75.58 87.1 25.58 87.1 0.58 130.4 25.58 173.71 75.58 173.71 100.58 130.4 75.58 87.1"/>
      <polygon class="cls-1" points="225.43 87.1 175.43 87.1 150.43 130.4 175.43 173.71 225.43 173.71 250.43 130.4 225.43 87.1"/>
      <polygon class="cls-1" points="150.5 130.4 100.5 130.4 75.5 173.71 100.5 217.01 150.5 217.01 175.5 173.71 150.5 130.4"/>
      <polygon class="cls-1" points="225.43 173.71 175.43 173.71 150.43 217.01 175.43 260.31 225.43 260.31 250.43 217.01 225.43 173.71"/>
      <polygon class="cls-1" points="75.58 173.71 25.58 173.71 0.58 217.01 25.58 260.31 75.58 260.31 100.58 217.01 75.58 173.71"/>
      <polygon class="cls-1" points="150.5 217.01 100.5 217.01 75.5 260.31 100.5 303.61 150.5 303.61 175.5 260.31 150.5 217.01"/>
      <polygon class="cls-1" points="225.43 0.5 175.43 0.5 150.43 43.8 175.43 87.1 225.43 87.1 250.43 43.8 225.43 0.5"/>
      <polygon class="cls-1" points="300.36 43.8 250.36 43.8 225.36 87.1 250.36 130.4 300.36 130.4 325.36 87.1 300.36 43.8"/>
      <polygon class="cls-1" points="375.29 0.5 325.29 0.5 300.29 43.8 325.29 87.1 375.29 87.1 400.29 43.8 375.29 0.5"/>
      <polygon class="cls-1" points="375.29 87.1 325.29 87.1 300.29 130.4 325.29 173.71 375.29 173.71 400.29 130.4 375.29 87.1"/>
      <polygon class="cls-1" points="300.36 130.4 250.36 130.4 225.36 173.71 250.36 217.01 300.36 217.01 325.36 173.71 300.36 130.4"/>
      <polygon class="cls-1" points="450.21 130.4 400.21 130.4 375.21 173.71 400.21 217.01 450.21 217.01 475.21 173.71 450.21 130.4"/>
      <polygon class="cls-1" points="375.29 173.71 325.29 173.71 300.29 217.01 325.29 260.31 375.29 260.31 400.29 217.01 375.29 173.71"/>
      <polygon class="cls-1" points="450.21 217.01 400.21 217.01 375.21 260.31 400.21 303.61 450.21 303.61 475.21 260.31 450.21 217.01"/>
      <polygon class="cls-1" points="300.36 217.01 250.36 217.01 225.36 260.31 250.36 303.61 300.36 303.61 325.36 260.31 300.36 217.01"/>
      <polygon class="cls-1" points="375.29 260.31 325.29 260.31 300.29 303.61 325.29 346.91 375.29 346.91 400.29 303.61 375.29 260.31"/>
      <polygon class="cls-1" points="450.21 43.8 400.21 43.8 375.21 87.1 400.21 130.4 450.21 130.4 475.21 87.1 450.21 43.8"/>
      <polygon class="cls-1" points="150.5 303.61 100.5 303.61 75.5 346.91 100.5 390.21 150.5 390.21 175.5 346.91 150.5 303.61"/>
      <polygon class="cls-1" points="225.43 260.31 175.43 260.31 150.43 303.61 175.43 346.91 225.43 346.91 250.43 303.61 225.43 260.31"/>
      <polygon class="cls-1" points="225.43 346.91 175.43 346.91 150.43 390.21 175.43 433.51 225.43 433.51 250.43 390.21 225.43 346.91"/>
      <polygon class="cls-1" points="150.5 390.21 100.5 390.21 75.5 433.51 100.5 476.81 150.5 476.81 175.5 433.51 150.5 390.21"/>
      <polygon class="cls-1" points="300.36 390.21 250.36 390.21 225.36 433.51 250.36 476.81 300.36 476.81 325.36 433.51 300.36 390.21"/>
      <polygon class="cls-1" points="225.43 433.51 175.43 433.51 150.43 476.81 175.43 520.12 225.43 520.12 250.43 476.81 225.43 433.51"/>
      <polygon class="cls-1" points="300.36 476.81 250.36 476.81 225.36 520.12 250.36 563.42 300.36 563.42 325.36 520.12 300.36 476.81"/>
      <polygon class="cls-1" points="150.5 476.81 100.5 476.81 75.5 520.12 100.5 563.42 150.5 563.42 175.5 520.12 150.5 476.81"/>
      <polygon class="cls-1" points="225.43 520.12 175.43 520.12 150.43 563.42 175.43 606.72 225.43 606.72 250.43 563.42 225.43 520.12"/>
      <polygon class="cls-1" points="300.36 303.61 250.36 303.61 225.36 346.91 250.36 390.21 300.36 390.21 325.36 346.91 300.36 303.61"/>
      <polygon class="cls-1" points="375.29 346.91 325.29 346.91 300.29 390.21 325.29 433.51 375.29 433.51 400.29 390.21 375.29 346.91"/>
      <polygon class="cls-1" points="450.21 303.61 400.21 303.61 375.21 346.91 400.21 390.21 450.21 390.21 475.21 346.91 450.21 303.61"/>
      <polygon class="cls-1" points="450.21 390.21 400.21 390.21 375.21 433.51 400.21 476.81 450.21 476.81 475.21 433.51 450.21 390.21"/>
      <polygon class="cls-1" points="375.29 433.51 325.29 433.51 300.29 476.81 325.29 520.12 375.29 520.12 400.29 476.81 375.29 433.51"/>
      <polygon class="cls-1" points="75.58 346.91 25.58 346.91 0.58 390.21 25.58 433.51 75.58 433.51 100.58 390.21 75.58 346.91"/>
      <polygon class="cls-1" points="450.21 476.81 400.21 476.81 375.21 520.12 400.21 563.42 450.21 563.42 475.21 520.12 450.21 476.81"/>
      <polygon class="cls-1" points="75.58 433.51 25.58 433.51 0.58 476.81 25.58 520.12 75.58 520.12 100.58 476.81 75.58 433.51"/>
      <polygon class="cls-1" points="375.29 520.12 325.29 520.12 300.29 563.42 325.29 606.72 375.29 606.72 400.29 563.42 375.29 520.12"/>
      <polygon class="cls-1" points="75.58 520.12 25.58 520.12 0.58 563.42 25.58 606.72 75.58 606.72 100.58 563.42 75.58 520.12"/>
      <polygon class="cls-1" points="75.58 260.31 25.58 260.31 0.58 303.61 25.58 346.91 75.58 346.91 100.58 303.61 75.58 260.31"/>
    </g>
  </g>
</svg>
