<svg xmlns="http://www.w3.org/2000/svg" viewBox="0 0 174.58 23.45">
  <defs>
    <style>
      .cls-1 {
        fill: none;
        stroke: #231f20;
        stroke-miterlimit: 10;
      }
    </style>
  </defs>
  <g id="Layer_2" data-name="Layer 2">
    <g id="Layer_1-2" data-name="Layer 1">
      <path class="cls-1" d="M2.54,23c-1.13,0-2-5-2-11.23S1.41.5,2.54.5,5,5.2,5,11.4"/>
      <path class="cls-1" d="M10.25,23c-1.12,0-2-5-2-11.23S9.13.5,10.25.5s2.41,4.7,2.41,10.9"/>
      <path class="cls-1" d="M18.06,23c-1.13,0-2-5-2-11.23S16.93.5,18.06.5s2.41,4.7,2.41,10.9"/>
      <path class="cls-1" d="M24.85,23c-1.13,0-2.05-5-2.05-11.23S23.72.5,24.85.5s2.41,4.7,2.41,10.9"/>
      <path class="cls-1" d="M32.38,23c-1.13,0-2.05-5-2.05-11.23S31.25.5,32.38.5s2.41,4.7,2.41,10.9"/>
      <path class="cls-1" d="M40.09,23C39,23,38,17.92,38,11.72S39,.5,40.09.5,42.5,5.2,42.5,11.4"/>
      <path class="cls-1" d="M47.89,23c-1.13,0-2-5-2-11.23S46.76.5,47.89.5,50.3,5.2,50.3,11.4"/>
      <path class="cls-1" d="M54.68,23c-1.13,0-2-5-2-11.23S53.55.5,54.68.5s2.41,4.7,2.41,10.9"/>
      <path class="cls-1" d="M61.43,23c-1.13,0-2-5-2-11.23S60.3.5,61.43.5s2.41,4.7,2.41,10.9"/>
      <path class="cls-1" d="M69.14,23c-1.13,0-2-5-2-11.23S68,.5,69.14.5s2.41,4.7,2.41,10.9"/>
      <path class="cls-1" d="M77,23c-1.13,0-2-5-2-11.23S75.82.5,77,.5s2.41,4.7,2.41,10.9"/>
      <path class="cls-1" d="M83.73,23c-1.12,0-2-5-2-11.23S82.61.5,83.73.5s2.41,4.7,2.41,10.9"/>
      <path class="cls-1" d="M90.48,23c-1.13,0-2-5-2-11.23S89.35.5,90.48.5s2.41,4.7,2.41,10.9"/>
      <path class="cls-1" d="M98.19,23c-1.13,0-2-5-2-11.23S97.06.5,98.19.5s2.41,4.7,2.41,10.9"/>
      <path class="cls-1" d="M106,23c-1.13,0-2-5-2-11.23S104.87.5,106,.5s2.41,4.7,2.41,10.9"/>
      <path class="cls-1" d="M112.79,23c-1.13,0-2.05-5-2.05-11.23S111.66.5,112.79.5s2.41,4.7,2.41,10.9"/>
      <path class="cls-1" d="M120.32,23c-1.13,0-2-5-2-11.23S119.19.5,120.32.5s2.41,4.7,2.41,10.9"/>
      <path class="cls-1" d="M128,23c-1.13,0-2-5-2-11.23S126.9.5,128,.5s2.41,4.7,2.41,10.9"/>
      <path class="cls-1" d="M135.83,23c-1.13,0-2-5-2-11.23S134.7.5,135.83.5s2.41,4.7,2.41,10.9"/>
      <path class="cls-1" d="M142.62,23c-1.13,0-2-5-2-11.23S141.49.5,142.62.5,145,5.2,145,11.4"/>
      <path class="cls-1" d="M149.37,23c-1.13,0-2-5-2-11.23S148.24.5,149.37.5s2.41,4.7,2.41,10.9"/>
      <path class="cls-1" d="M157.08,23c-1.13,0-2-5-2-11.23S156,.5,157.08.5s2.41,4.7,2.41,10.9"/>
      <path class="cls-1" d="M164.89,23c-1.13,0-2-5-2-11.23S163.76.5,164.89.5s2.4,4.7,2.4,10.9"/>
      <path class="cls-1" d="M171.67,23c-1.12,0-2-5-2-11.23S170.55.5,171.67.5s2.41,4.7,2.41,10.9"/>
    </g>
  </g>
</svg>
