<svg id="Component_1_1" data-name="Component 1 – 1" xmlns="http://www.w3.org/2000/svg" width="451" height="267" viewBox="0 0 451 267">
  <g id="Polygon_2" data-name="Polygon 2" transform="translate(226) rotate(90)" fill="#fff">
    <path d="M 266.1239318847656 225.5 L 0.876071035861969 225.5 L 133.5 0.9830865263938904 L 266.1239318847656 225.5 Z" stroke="none"/>
    <path d="M 133.5 1.966171264648438 L 1.75213623046875 225 L 265.2478637695313 225 L 133.5 1.966171264648438 M 133.5 0 L 267 226 L 0 226 L 133.5 0 Z" stroke="none" fill="#707070"/>
  </g>
  <g id="Polygon_3" data-name="Polygon 3" transform="translate(225 267) rotate(-90)" fill="#fff">
    <path d="M 266.1239318847656 225.5 L 0.876071035861969 225.5 L 133.5 0.9830865263938904 L 266.1239318847656 225.5 Z" stroke="none"/>
    <path d="M 133.5 1.966171264648438 L 1.75213623046875 225 L 265.2478637695313 225 L 133.5 1.966171264648438 M 133.5 0 L 267 226 L 0 226 L 133.5 0 Z" stroke="none" fill="#707070"/>
  </g>
  <g id="Polygon_1" data-name="Polygon 1" transform="translate(0 94)" fill="#fff">
    <path d="M 449.5267944335938 172.5 L 1.473166942596436 172.5 L 225.4999847412109 0.6302018761634827 L 449.5267944335938 172.5 Z" stroke="none"/>
    <path d="M 225.4999847412109 1.260345458984375 L 2.9462890625 172 L 448.0536804199219 172 L 225.4999847412109 1.260345458984375 M 225.4999847412109 0 L 451 173 L -3.0517578125e-05 173 L 225.4999847412109 0 Z" stroke="none" fill="#707070"/>
  </g>
  <g id="Polygon_4" data-name="Polygon 4" transform="translate(451 181) rotate(180)" fill="#fff">
    <path d="M 449.5782165527344 180.5 L 1.421767711639404 180.5 L 225.4999694824219 0.6411772966384888 L 449.5782165527344 180.5 Z" stroke="none"/>
    <path d="M 225.4999694824219 1.282257080078125 L 2.84332275390625 180 L 448.1565551757813 180 L 225.4999694824219 1.282257080078125 M 225.4999694824219 0 L 450.9999084472656 181 L -3.0517578125e-05 181 L 225.4999694824219 0 Z" stroke="none" fill="#707070"/>
  </g>
</svg>
