<svg xmlns="http://www.w3.org/2000/svg" width="62.677" height="65.324" viewBox="0 0 62.677 65.324">
  <defs>
    <style>
      .cls-1 {
        stroke: #000;
        stroke-width: 0.5px;
      }

      .cls-2 {
        fill: #fff;
        font-size: 24px;
        font-family: TempusSansITC, Tempus Sans ITC;
      }
    </style>
  </defs>
  <g id="Meeple" transform="translate(0.251 0.25)">
    <path id="Path_1" data-name="Path 1" class="cls-1" d="M144.546,179.366s-.916-13.806,10.075-13.554,9.454,11.347,10.008,13.394l.121.366,1.348.531,4.611,1.554,5.21,2.066s3.162,1.63,3.251,1.655,3.213,2.236,3.213,2.236l1.682,1.725.813,1.264.4.9.271.979.113.91v.455l-.1,1.023s-.2.91-.2.935-.422,1-.422,1l-.775,1.036-.762.644-.97.48-.913.291-.831.177-.687.139-.983.057-2.136.088H175.6s-1.109.114-1.147.114-1.172.221-1.172.221a6.85,6.85,0,0,0-.693.265,2.723,2.723,0,0,1-.391.31l-.252.379-.044.859.189,1.024.781,1.864.756,1.6.731,1.384.643,1.144.58,1.125.787,1.422.775,1.434.806,1.51.668,1.3.762,1.529.768,1.579.718,1.617.831,2.161.473,1.377.372,1.32.277,1.352.145.834v1.106l-.044.632-.328.625-.5.423-.643.265-1.241.114-1.808.032H164.649l-1.273-.392-.958-.853-1.039-1.447-.611-1.061-.737-1.264-.68-1.226-.781-1.308-1.3-2.249-1.134-1.636-.832-.878-.542-.341-.346-.013-.466.278-.9.941-.844,1.213-.92,1.459-1.165,2-.536.948-.611,1.093-1.033,1.731-.674,1.017-.479.7-.535.55-.674.411-.573.24-.8.088-15.446-.019-1.291-.2-.542-.265-.535-.587-.183-.423-.069-.828.032-.745.258-1.687.4-1.554.586-1.737.542-1.472.762-1.681.888-1.908.592-1.207.693-1.4.813-1.51,1.065-2.022,1.411-2.521.869-1.681.939-1.813.712-1.586.353-.922.183-.714.057-.594-.076-.556-.422-.588-.636-.354-.8-.145-.85-.164-1.562-.07-2.135-.05-1-.063-1.14-.076-1.15-.218-1.542-.677-.907-.661-.907-1.255-.4-.964-.189-1.129-.084-1.044.1-1.087.273-.923.353-.779.559-.922,1.033-1.251.882-.813,1.05-.842,1.276-.875,1.367-.824,2.539-1.267,2.161-.945,2.466-.967,1.969-.692,1.474-.531,1.764-.584,1.257-.458.463-.243Z" transform="translate(-123.488 -165.809)"/>
    <text id="_1" data-name="1" class="cls-2" transform="translate(32 40.438)"><tspan x="-4.512" y="0">1</tspan></text>
  </g>
</svg>
