<?xml version="1.0" encoding="utf-8"?>
<!-- Generator: Adobe Illustrator 24.3.0, SVG Export Plug-In . SVG Version: 6.00 Build 0)  -->
<svg version="1.1" id="Layer_1" xmlns="http://www.w3.org/2000/svg" xmlns:xlink="http://www.w3.org/1999/xlink" x="0px" y="0px"
	 viewBox="0 0 451 180.8" style="enable-background:new 0 0 451 180.8;" xml:space="preserve">
<style type="text/css">
	.st0{fill:#005698;}
	.st1{fill:#754C29;stroke:#8B5E3C;stroke-miterlimit:10;}
	.st2{stroke:#000000;stroke-width:0.5;}
	.st3{fill:#FFFFFF;}
	.st4{font-family:'TempusSansITC';}
	.st5{font-size:18.5098px;}
</style>
<g id="seesaw">
	<path id="left_drop" class="st0" d="M157.6,0H2.6C1.5,0,0.5,0.9,0.5,2c0,0,0,0.1,0,0.1V105c0,1.1,0.9,2.1,2,2.1c0,0,0.1,0,0.1,0
		h155c1.1,0,2.1-0.9,2.1-2c0,0,0-0.1,0-0.1V2.1C159.7,0.9,158.8,0,157.6,0z"/>
	<path id="left_drop-2" class="st0" d="M448.3,0h-155c-1.1,0-2.1,0.9-2.1,2c0,0,0,0.1,0,0.1V105c0,1.1,0.9,2.1,2,2.1
		c0,0,0.1,0,0.1,0h155c1.1,0,2.1-0.9,2.1-2c0,0,0-0.1,0-0.1V2.1c0-1.1-0.9-2.1-2-2.1C448.4,0,448.3,0,448.3,0z"/>
	<polygon id="triangle" class="st1" points="225.4,119.6 190.4,180.3 260.4,180.3 	"/>
	<path class="st1" d="M447.5,132.1H3.4c-1.6,0-2.9-1.3-2.9-2.9v-19.1c0-1.6,1.3-2.9,2.9-2.9h444.2c1.6,0,2.9,1.3,2.9,2.9
		c0,0,0,0,0,0v19.2C450.4,130.9,449.1,132.1,447.5,132.1z"/>
</g>
<g id="Meeple_1_" transform="translate(0.251 0.25)">
	<path id="Path_1_1_" class="st2" d="M19.2,12.2c0,0-0.7-10.6,8.1-10.5s7.6,8.8,8,10.3l0.1,0.3l1.1,0.4l3.7,1.2l4.2,1.6
		c0,0,2.5,1.3,2.6,1.3c0.1,0,2.6,1.7,2.6,1.7l1.4,1.3l0.7,1l0.3,0.7l0.2,0.8l0.1,0.7v0.4l-0.1,0.8c0,0-0.2,0.7-0.2,0.7
		c0,0-0.3,0.8-0.3,0.8L51,26.5L50.4,27l-0.8,0.4l-0.7,0.2l-0.7,0.1l-0.6,0.1l-0.8,0l-1.7,0.1h-1c0,0-0.9,0.1-0.9,0.1
		c0,0-0.9,0.2-0.9,0.2c-0.2,0.1-0.4,0.1-0.6,0.2c-0.1,0.1-0.2,0.2-0.3,0.2l-0.2,0.3l0,0.7l0.2,0.8l0.6,1.4l0.6,1.2l0.6,1.1l0.5,0.9
		l0.5,0.9l0.6,1.1l0.6,1.1l0.6,1.2l0.5,1l0.6,1.2l0.6,1.2l0.6,1.2l0.7,1.7l0.4,1.1l0.3,1l0.2,1l0.1,0.6v0.9l0,0.5l-0.3,0.5l-0.4,0.3
		l-0.5,0.2l-1,0.1l-1.5,0H35.3l-1-0.3l-0.8-0.7l-0.8-1.1l-0.5-0.8l-0.6-1l-0.5-0.9l-0.6-1l-1-1.7l-0.9-1.3l-0.7-0.7L27.4,42l-0.3,0
		l-0.4,0.2L26,42.9l-0.7,0.9L24.6,45l-0.9,1.5l-0.4,0.7l-0.5,0.8l-0.8,1.3l-0.5,0.8L21,50.8l-0.4,0.4L20,51.5l-0.5,0.2l-0.6,0.1
		l-12.4,0l-1-0.2L5,51.4l-0.4-0.5l-0.1-0.3L4.4,50l0-0.6l0.2-1.3l0.3-1.2l0.5-1.3l0.4-1.1l0.6-1.3l0.7-1.5l0.5-0.9l0.6-1.1l0.7-1.2
		l0.9-1.6l1.1-1.9l0.7-1.3l0.8-1.4l0.6-1.2l0.3-0.7l0.1-0.6l0-0.5l-0.1-0.4l-0.3-0.5l-0.5-0.3l-0.6-0.1l-0.7-0.1l-1.3-0.1l-1.7,0
		l-0.8,0l-0.9-0.1l-0.9-0.2L4.2,27l-0.7-0.5l-0.7-1l-0.3-0.7l-0.2-0.9l-0.1-0.8l0.1-0.8l0.2-0.7L2.8,21l0.4-0.7l0.8-1l0.7-0.6
		L5.7,18l1-0.7l1.1-0.6l2-1l1.7-0.7l2-0.7l1.6-0.5l1.2-0.4l1.4-0.5l1-0.4l0.4-0.2L19.2,12.2z"/>
	<text transform="matrix(1.0428 0 0 1 24.3511 32.9385)" class="st3 st4 st5">1</text>
</g>
<g id="Meeple_2_" transform="translate(0.251 0.25)">
	<path id="Path_1_2_" class="st2" d="M71.2,12.2c0,0-0.7-10.6,8.1-10.5s7.6,8.8,8,10.3l0.1,0.3l1.1,0.4l3.7,1.2l4.2,1.6
		c0,0,2.5,1.3,2.6,1.3c0.1,0,2.6,1.7,2.6,1.7l1.4,1.3l0.7,1l0.3,0.7l0.2,0.8l0.1,0.7v0.4l-0.1,0.8c0,0-0.2,0.7-0.2,0.7
		c0,0-0.3,0.8-0.3,0.8l-0.6,0.8l-0.6,0.5l-0.8,0.4l-0.7,0.2l-0.7,0.1l-0.6,0.1l-0.8,0l-1.7,0.1h-1c0,0-0.9,0.1-0.9,0.1
		s-0.9,0.2-0.9,0.2c-0.2,0.1-0.4,0.1-0.6,0.2c-0.1,0.1-0.2,0.2-0.3,0.2l-0.2,0.3l0,0.7l0.2,0.8l0.6,1.4l0.6,1.2l0.6,1.1l0.5,0.9
		l0.5,0.9l0.6,1.1l0.6,1.1l0.6,1.2l0.5,1l0.6,1.2l0.6,1.2l0.6,1.2l0.7,1.7l0.4,1.1l0.3,1l0.2,1l0.1,0.6v0.9l0,0.5l-0.3,0.5l-0.4,0.3
		l-0.5,0.2l-1,0.1l-1.5,0H87.3l-1-0.3l-0.8-0.7l-0.8-1.1l-0.5-0.8l-0.6-1l-0.5-0.9l-0.6-1l-1-1.7l-0.9-1.3l-0.7-0.7L79.4,42l-0.3,0
		l-0.4,0.2L78,42.9l-0.7,0.9L76.6,45l-0.9,1.5l-0.4,0.7l-0.5,0.8l-0.8,1.3l-0.5,0.8L73,50.8l-0.4,0.4L72,51.5l-0.5,0.2l-0.6,0.1
		l-12.4,0l-1-0.2L57,51.4l-0.4-0.5l-0.1-0.3L56.4,50l0-0.6l0.2-1.3l0.3-1.2l0.5-1.3l0.4-1.1l0.6-1.3l0.7-1.5l0.5-0.9l0.6-1.1
		l0.7-1.2l0.9-1.6l1.1-1.9l0.7-1.3l0.8-1.4l0.6-1.2l0.3-0.7l0.1-0.6l0-0.5l-0.1-0.4l-0.3-0.5l-0.5-0.3l-0.6-0.1l-0.7-0.1l-1.3-0.1
		l-1.7,0l-0.8,0l-0.9-0.1l-0.9-0.2L56.2,27l-0.7-0.5l-0.7-1l-0.3-0.7l-0.2-0.9l-0.1-0.8l0.1-0.8l0.2-0.7l0.3-0.6l0.4-0.7l0.8-1
		l0.7-0.6l0.8-0.6l1-0.7l1.1-0.6l2-1l1.7-0.7l2-0.7l1.6-0.5l1.2-0.4l1.4-0.5l1-0.4l0.4-0.2L71.2,12.2z"/>
	<text transform="matrix(1.0428 0 0 1 76.3511 32.9385)" class="st3 st4 st5">1</text>
</g>
<g id="Meeple_3_" transform="translate(0.251 0.25)">
	<path id="Path_1_3_" class="st2" d="M123.2,12.2c0,0-0.7-10.6,8.1-10.5c8.8,0.2,7.6,8.8,8,10.3l0.1,0.3l1.1,0.4l3.7,1.2l4.2,1.6
		c0,0,2.5,1.3,2.6,1.3c0.1,0,2.6,1.7,2.6,1.7l1.4,1.3l0.7,1l0.3,0.7l0.2,0.8l0.1,0.7v0.4l-0.1,0.8c0,0-0.2,0.7-0.2,0.7
		c0,0-0.3,0.8-0.3,0.8l-0.6,0.8l-0.6,0.5l-0.8,0.4l-0.7,0.2l-0.7,0.1l-0.6,0.1l-0.8,0l-1.7,0.1h-1c0,0-0.9,0.1-0.9,0.1
		c0,0-0.9,0.2-0.9,0.2c-0.2,0.1-0.4,0.1-0.6,0.2c-0.1,0.1-0.2,0.2-0.3,0.2l-0.2,0.3l0,0.7l0.2,0.8l0.6,1.4l0.6,1.2l0.6,1.1l0.5,0.9
		l0.5,0.9l0.6,1.1l0.6,1.1l0.6,1.2l0.5,1l0.6,1.2l0.6,1.2l0.6,1.2l0.7,1.7l0.4,1.1l0.3,1l0.2,1l0.1,0.6v0.9l0,0.5l-0.3,0.5l-0.4,0.3
		l-0.5,0.2l-1,0.1l-1.5,0h-11.1l-1-0.3l-0.8-0.7l-0.8-1.1l-0.5-0.8l-0.6-1l-0.5-0.9l-0.6-1l-1-1.7l-0.9-1.3l-0.7-0.7l-0.4-0.3
		l-0.3,0l-0.4,0.2l-0.7,0.7l-0.7,0.9l-0.7,1.1l-0.9,1.5l-0.4,0.7l-0.5,0.8l-0.8,1.3l-0.5,0.8l-0.4,0.5l-0.4,0.4l-0.5,0.3l-0.5,0.2
		l-0.6,0.1l-12.4,0l-1-0.2l-0.4-0.2l-0.4-0.5l-0.1-0.3l-0.1-0.6l0-0.6l0.2-1.3l0.3-1.2l0.5-1.3l0.4-1.1l0.6-1.3l0.7-1.5l0.5-0.9
		l0.6-1.1l0.7-1.2l0.9-1.6l1.1-1.9l0.7-1.3l0.8-1.4l0.6-1.2l0.3-0.7l0.1-0.6l0-0.5l-0.1-0.4l-0.3-0.5l-0.5-0.3l-0.6-0.1l-0.7-0.1
		l-1.3-0.1l-1.7,0l-0.8,0l-0.9-0.1l-0.9-0.2l-1.2-0.5l-0.7-0.5l-0.7-1l-0.3-0.7l-0.2-0.9l-0.1-0.8l0.1-0.8l0.2-0.7l0.3-0.6l0.4-0.7
		l0.8-1l0.7-0.6l0.8-0.6l1-0.7l1.1-0.6l2-1l1.7-0.7l2-0.7l1.6-0.5l1.2-0.4l1.4-0.5l1-0.4l0.4-0.2L123.2,12.2z"/>
	<text transform="matrix(1.0428 0 0 1 128.3511 32.9385)" class="st3 st4 st5">1</text>
</g>
<g id="Meeple_6_" transform="translate(0.251 0.25)">
	<path id="Path_1_6_" class="st2" d="M19.8,65.3c0,0-0.7-10.6,8.1-10.5c8.8,0.2,7.6,8.8,8,10.3l0.1,0.3l1.1,0.4l3.7,1.2l4.2,1.6
		c0,0,2.5,1.3,2.6,1.3c0.1,0,2.6,1.7,2.6,1.7l1.4,1.3l0.7,1l0.3,0.7l0.2,0.8l0.1,0.7v0.4l-0.1,0.8c0,0-0.2,0.7-0.2,0.7
		s-0.3,0.8-0.3,0.8l-0.6,0.8L51,80.1l-0.8,0.4l-0.7,0.2l-0.7,0.1l-0.6,0.1l-0.8,0L45.8,81h-1c0,0-0.9,0.1-0.9,0.1s-0.9,0.2-0.9,0.2
		c-0.2,0.1-0.4,0.1-0.6,0.2c-0.1,0.1-0.2,0.2-0.3,0.2L41.8,82l0,0.7l0.2,0.8l0.6,1.4l0.6,1.2l0.6,1.1l0.5,0.9l0.5,0.9l0.6,1.1
		l0.6,1.1l0.6,1.2l0.5,1l0.6,1.2l0.6,1.2L49,97l0.7,1.7l0.4,1.1l0.3,1l0.2,1l0.1,0.6v0.9l0,0.5l-0.3,0.5l-0.4,0.3l-0.5,0.2l-1,0.1
		l-1.5,0H35.9l-1-0.3l-0.8-0.7l-0.8-1.1l-0.5-0.8l-0.6-1l-0.5-0.9l-0.6-1l-1-1.7L29.1,96l-0.7-0.7L28,95.1l-0.3,0l-0.4,0.2L26.6,96
		L25.9,97l-0.7,1.1l-0.9,1.5l-0.4,0.7l-0.5,0.8l-0.8,1.3l-0.5,0.8l-0.4,0.5l-0.4,0.4l-0.5,0.3l-0.5,0.2l-0.6,0.1l-12.4,0l-1-0.2
		l-0.4-0.2L5.2,104L5,103.7L5,103.1l0-0.6l0.2-1.3l0.3-1.2L6,98.6l0.4-1.1l0.6-1.3l0.7-1.5l0.5-0.9l0.6-1.1l0.7-1.2l0.9-1.6l1.1-1.9
		l0.7-1.3l0.8-1.4l0.6-1.2l0.3-0.7l0.1-0.6l0-0.5L13.9,82l-0.3-0.5L13,81.3l-0.6-0.1L11.7,81L10.5,81l-1.7,0l-0.8,0L7,80.8l-0.9-0.2
		l-1.2-0.5l-0.7-0.5l-0.7-1l-0.3-0.7l-0.2-0.9l-0.1-0.8l0.1-0.8l0.2-0.7l0.3-0.6l0.4-0.7l0.8-1l0.7-0.6l0.8-0.6l1-0.7l1.1-0.6l2-1
		l1.7-0.7l2-0.7l1.6-0.5l1.2-0.4l1.4-0.5l1-0.4l0.4-0.2L19.8,65.3z"/>
	<text transform="matrix(1.0428 0 0 1 24.9511 86.0391)" class="st3 st4 st5">1</text>
</g>
<g id="Meeple_5_" transform="translate(0.251 0.25)">
	<path id="Path_1_5_" class="st2" d="M71.8,65.3c0,0-0.7-10.6,8.1-10.5c8.8,0.2,7.6,8.8,8,10.3l0.1,0.3l1.1,0.4l3.7,1.2l4.2,1.6
		c0,0,2.5,1.3,2.6,1.3s2.6,1.7,2.6,1.7l1.4,1.3l0.7,1l0.3,0.7l0.2,0.8l0.1,0.7v0.4l-0.1,0.8c0,0-0.2,0.7-0.2,0.7s-0.3,0.8-0.3,0.8
		l-0.6,0.8l-0.6,0.5l-0.8,0.4l-0.7,0.2l-0.7,0.1l-0.6,0.1l-0.8,0L97.8,81h-1c0,0-0.9,0.1-0.9,0.1c0,0-0.9,0.2-0.9,0.2
		c-0.2,0.1-0.4,0.1-0.6,0.2c-0.1,0.1-0.2,0.2-0.3,0.2L93.8,82l0,0.7l0.2,0.8l0.6,1.4l0.6,1.2l0.6,1.1l0.5,0.9l0.5,0.9l0.6,1.1
		l0.6,1.1l0.6,1.2l0.5,1l0.6,1.2l0.6,1.2L101,97l0.7,1.7l0.4,1.1l0.3,1l0.2,1l0.1,0.6v0.9l0,0.5l-0.3,0.5l-0.4,0.3l-0.5,0.2l-1,0.1
		l-1.5,0H87.9l-1-0.3l-0.8-0.7l-0.8-1.1l-0.5-0.8l-0.6-1l-0.5-0.9l-0.6-1l-1-1.7L81.1,96l-0.7-0.7L80,95.1l-0.3,0l-0.4,0.2L78.6,96
		L77.9,97l-0.7,1.1l-0.9,1.5l-0.4,0.7l-0.5,0.8l-0.8,1.3l-0.5,0.8l-0.4,0.5l-0.4,0.4l-0.5,0.3l-0.5,0.2l-0.6,0.1l-12.4,0l-1-0.2
		l-0.4-0.2l-0.4-0.5l-0.1-0.3l-0.1-0.6l0-0.6l0.2-1.3l0.3-1.2l0.5-1.3l0.4-1.1l0.6-1.3l0.7-1.5l0.5-0.9l0.6-1.1l0.7-1.2l0.9-1.6
		l1.1-1.9l0.7-1.3l0.8-1.4l0.6-1.2l0.3-0.7l0.1-0.6l0-0.5L65.9,82l-0.3-0.5L65,81.3l-0.6-0.1L63.7,81L62.5,81l-1.7,0l-0.8,0L59,80.8
		l-0.9-0.2l-1.2-0.5l-0.7-0.5l-0.7-1l-0.3-0.7l-0.2-0.9l-0.1-0.8l0.1-0.8l0.2-0.7l0.3-0.6l0.4-0.7l0.8-1l0.7-0.6l0.8-0.6l1-0.7
		l1.1-0.6l2-1l1.7-0.7l2-0.7l1.6-0.5l1.2-0.4l1.4-0.5l1-0.4l0.4-0.2L71.8,65.3z"/>
	<text transform="matrix(1.0428 0 0 1 76.9511 86.0391)" class="st3 st4 st5">1</text>
</g>
<g id="Meeple_4_" transform="translate(0.251 0.25)">
	<path id="Path_1_4_" class="st2" d="M123.8,65.3c0,0-0.7-10.6,8.1-10.5c8.8,0.2,7.6,8.8,8,10.3l0.1,0.3l1.1,0.4l3.7,1.2l4.2,1.6
		c0,0,2.5,1.3,2.6,1.3s2.6,1.7,2.6,1.7l1.4,1.3l0.7,1l0.3,0.7l0.2,0.8l0.1,0.7v0.4l-0.1,0.8c0,0-0.2,0.7-0.2,0.7s-0.3,0.8-0.3,0.8
		l-0.6,0.8l-0.6,0.5l-0.8,0.4l-0.7,0.2l-0.7,0.1l-0.6,0.1l-0.8,0l-1.7,0.1h-1c0,0-0.9,0.1-0.9,0.1c0,0-0.9,0.2-0.9,0.2
		c-0.2,0.1-0.4,0.1-0.6,0.2c-0.1,0.1-0.2,0.2-0.3,0.2l-0.2,0.3l0,0.7l0.2,0.8l0.6,1.4l0.6,1.2l0.6,1.1l0.5,0.9l0.5,0.9l0.6,1.1
		l0.6,1.1l0.6,1.2l0.5,1l0.6,1.2l0.6,1.2L153,97l0.7,1.7l0.4,1.1l0.3,1l0.2,1l0.1,0.6v0.9l0,0.5l-0.3,0.5l-0.4,0.3l-0.5,0.2l-1,0.1
		l-1.5,0h-11.1l-1-0.3l-0.8-0.7l-0.8-1.1l-0.5-0.8l-0.6-1l-0.5-0.9l-0.6-1l-1-1.7l-0.9-1.3l-0.7-0.7l-0.4-0.3l-0.3,0l-0.4,0.2
		l-0.7,0.7l-0.7,0.9l-0.7,1.1l-0.9,1.5l-0.4,0.7l-0.5,0.8l-0.8,1.3l-0.5,0.8l-0.4,0.5l-0.4,0.4l-0.5,0.3l-0.5,0.2l-0.6,0.1l-12.4,0
		l-1-0.2l-0.4-0.2l-0.4-0.5l-0.1-0.3l-0.1-0.6l0-0.6l0.2-1.3l0.3-1.2l0.5-1.3l0.4-1.1l0.6-1.3l0.7-1.5l0.5-0.9l0.6-1.1l0.7-1.2
		l0.9-1.6l1.1-1.9l0.7-1.3l0.8-1.4l0.6-1.2l0.3-0.7l0.1-0.6l0-0.5l-0.1-0.4l-0.3-0.5l-0.5-0.3l-0.6-0.1l-0.7-0.1l-1.3-0.1l-1.7,0
		l-0.8,0l-0.9-0.1l-0.9-0.2l-1.2-0.5l-0.7-0.5l-0.7-1l-0.3-0.7l-0.2-0.9l-0.1-0.8l0.1-0.8l0.2-0.7l0.3-0.6l0.4-0.7l0.8-1l0.7-0.6
		l0.8-0.6l1-0.7l1.1-0.6l2-1l1.7-0.7l2-0.7l1.6-0.5l1.2-0.4l1.4-0.5l1-0.4l0.4-0.2L123.8,65.3z"/>
	<text transform="matrix(1.0428 0 0 1 128.9511 86.0391)" class="st3 st4 st5">1</text>
</g>
<g id="Meeple_12_" transform="translate(0.251 0.25)">
	<path id="Path_1_12_" class="st2" d="M310.5,12.2c0,0-0.7-10.6,8.1-10.5s7.6,8.8,8,10.3l0.1,0.3l1.1,0.4l3.7,1.2l4.2,1.6
		c0,0,2.5,1.3,2.6,1.3c0.1,0,2.6,1.7,2.6,1.7l1.4,1.3l0.7,1l0.3,0.7l0.2,0.8l0.1,0.7v0.4l-0.1,0.8c0,0-0.2,0.7-0.2,0.7
		s-0.3,0.8-0.3,0.8l-0.6,0.8l-0.6,0.5l-0.8,0.4l-0.7,0.2l-0.7,0.1l-0.6,0.1l-0.8,0l-1.7,0.1h-1c0,0-0.9,0.1-0.9,0.1
		c0,0-0.9,0.2-0.9,0.2c-0.2,0.1-0.4,0.1-0.6,0.2c-0.1,0.1-0.2,0.2-0.3,0.2l-0.2,0.3l0,0.7l0.2,0.8l0.6,1.4l0.6,1.2l0.6,1.1L335,35
		l0.5,0.9l0.6,1.1l0.6,1.1l0.6,1.2l0.5,1l0.6,1.2l0.6,1.2l0.6,1.2l0.7,1.7l0.4,1.1l0.3,1l0.2,1l0.1,0.6v0.9l0,0.5l-0.3,0.5l-0.4,0.3
		l-0.5,0.2l-1,0.1l-1.5,0h-11.1l-1-0.3l-0.8-0.7l-0.8-1.1l-0.5-0.8l-0.6-1l-0.5-0.9l-0.6-1l-1-1.7l-0.9-1.3l-0.7-0.7l-0.4-0.3
		l-0.3,0l-0.4,0.2l-0.7,0.7l-0.7,0.9l-0.7,1.1l-0.9,1.5l-0.4,0.7l-0.5,0.8l-0.8,1.3l-0.5,0.8l-0.4,0.5l-0.4,0.4l-0.5,0.3l-0.5,0.2
		l-0.6,0.1l-12.4,0l-1-0.2l-0.4-0.2l-0.4-0.5l-0.1-0.3l-0.1-0.6l0-0.6l0.2-1.3l0.3-1.2l0.5-1.3l0.4-1.1l0.6-1.3l0.7-1.5l0.5-0.9
		l0.6-1.1l0.7-1.2l0.9-1.6l1.1-1.9l0.7-1.3l0.8-1.4l0.6-1.2l0.3-0.7l0.1-0.6l0-0.5l-0.1-0.4l-0.3-0.5l-0.5-0.3l-0.6-0.1l-0.7-0.1
		l-1.3-0.1l-1.7,0l-0.8,0l-0.9-0.1l-0.9-0.2l-1.2-0.5l-0.7-0.5l-0.7-1l-0.3-0.7l-0.2-0.9l-0.1-0.8l0.1-0.8l0.2-0.7l0.3-0.6l0.4-0.7
		l0.8-1l0.7-0.6L297,18l1-0.7l1.1-0.6l2-1l1.7-0.7l2-0.7l1.6-0.5l1.2-0.4l1.4-0.5l1-0.4l0.4-0.2L310.5,12.2z"/>
	<text transform="matrix(1.0428 0 0 1 315.6517 32.9378)" class="st3 st4 st5">1</text>
</g>
<g id="Meeple_11_" transform="translate(0.251 0.25)">
	<path id="Path_1_11_" class="st2" d="M362.5,12.2c0,0-0.7-10.6,8.1-10.5s7.6,8.8,8,10.3l0.1,0.3l1.1,0.4l3.7,1.2l4.2,1.6
		c0,0,2.5,1.3,2.6,1.3c0.1,0,2.6,1.7,2.6,1.7l1.4,1.3l0.7,1l0.3,0.7l0.2,0.8l0.1,0.7v0.4l-0.1,0.8c0,0-0.2,0.7-0.2,0.7
		s-0.3,0.8-0.3,0.8l-0.6,0.8l-0.6,0.5l-0.8,0.4l-0.7,0.2l-0.7,0.1l-0.6,0.1l-0.8,0l-1.7,0.1h-1c0,0-0.9,0.1-0.9,0.1
		c0,0-0.9,0.2-0.9,0.2c-0.2,0.1-0.4,0.1-0.6,0.2c-0.1,0.1-0.2,0.2-0.3,0.2l-0.2,0.3l0,0.7l0.2,0.8l0.6,1.4l0.6,1.2l0.6,1.1L387,35
		l0.5,0.9l0.6,1.1l0.6,1.1l0.6,1.2l0.5,1l0.6,1.2l0.6,1.2l0.6,1.2l0.7,1.7l0.4,1.1l0.3,1l0.2,1l0.1,0.6v0.9l0,0.5l-0.3,0.5l-0.4,0.3
		l-0.5,0.2l-1,0.1l-1.5,0h-11.1l-1-0.3l-0.8-0.7l-0.8-1.1l-0.5-0.8l-0.6-1l-0.5-0.9l-0.6-1l-1-1.7l-0.9-1.3l-0.7-0.7l-0.4-0.3
		l-0.3,0l-0.4,0.2l-0.7,0.7l-0.7,0.9l-0.7,1.1l-0.9,1.5l-0.4,0.7l-0.5,0.8l-0.8,1.3l-0.5,0.8l-0.4,0.5l-0.4,0.4l-0.5,0.3l-0.5,0.2
		l-0.6,0.1l-12.4,0l-1-0.2l-0.4-0.2l-0.4-0.5l-0.1-0.3l-0.1-0.6l0-0.6l0.2-1.3l0.3-1.2l0.5-1.3l0.4-1.1l0.6-1.3l0.7-1.5l0.5-0.9
		l0.6-1.1l0.7-1.2l0.9-1.6l1.1-1.9l0.7-1.3l0.8-1.4l0.6-1.2l0.3-0.7l0.1-0.6l0-0.5l-0.1-0.4l-0.3-0.5l-0.5-0.3l-0.6-0.1l-0.7-0.1
		l-1.3-0.1l-1.7,0l-0.8,0l-0.9-0.1l-0.9-0.2l-1.2-0.5l-0.7-0.5l-0.7-1l-0.3-0.7l-0.2-0.9l-0.1-0.8l0.1-0.8l0.2-0.7l0.3-0.6l0.4-0.7
		l0.8-1l0.7-0.6L349,18l1-0.7l1.1-0.6l2-1l1.7-0.7l2-0.7l1.6-0.5l1.2-0.4l1.4-0.5l1-0.4l0.4-0.2L362.5,12.2z"/>
	<text transform="matrix(1.0428 0 0 1 367.6517 32.9378)" class="st3 st4 st5">1</text>
</g>
<g id="Meeple_10_" transform="translate(0.251 0.25)">
	<path id="Path_1_10_" class="st2" d="M414.5,12.2c0,0-0.7-10.6,8.1-10.5s7.6,8.8,8,10.3l0.1,0.3l1.1,0.4l3.7,1.2l4.2,1.6
		c0,0,2.5,1.3,2.6,1.3c0.1,0,2.6,1.7,2.6,1.7l1.4,1.3l0.7,1l0.3,0.7l0.2,0.8l0.1,0.7v0.4l-0.1,0.8c0,0-0.2,0.7-0.2,0.7
		s-0.3,0.8-0.3,0.8l-0.6,0.8l-0.6,0.5l-0.8,0.4l-0.7,0.2l-0.7,0.1l-0.6,0.1l-0.8,0l-1.7,0.1h-1c0,0-0.9,0.1-0.9,0.1
		c0,0-0.9,0.2-0.9,0.2c-0.2,0.1-0.4,0.1-0.6,0.2c-0.1,0.1-0.2,0.2-0.3,0.2l-0.2,0.3l0,0.7l0.2,0.8l0.6,1.4l0.6,1.2l0.6,1.1L439,35
		l0.5,0.9l0.6,1.1l0.6,1.1l0.6,1.2l0.5,1l0.6,1.2l0.6,1.2l0.6,1.2l0.7,1.7l0.4,1.1l0.3,1l0.2,1l0.1,0.6v0.9l0,0.5l-0.3,0.5l-0.4,0.3
		l-0.5,0.2l-1,0.1l-1.5,0h-11.1l-1-0.3l-0.8-0.7l-0.8-1.1l-0.5-0.8l-0.6-1l-0.5-0.9l-0.6-1l-1-1.7l-0.9-1.3l-0.7-0.7l-0.4-0.3
		l-0.3,0l-0.4,0.2l-0.7,0.7l-0.7,0.9l-0.7,1.1l-0.9,1.5l-0.4,0.7l-0.5,0.8l-0.8,1.3l-0.5,0.8l-0.4,0.5l-0.4,0.4l-0.5,0.3l-0.5,0.2
		l-0.6,0.1l-12.4,0l-1-0.2l-0.4-0.2l-0.4-0.5l-0.1-0.3l-0.1-0.6l0-0.6l0.2-1.3l0.3-1.2l0.5-1.3l0.4-1.1l0.6-1.3l0.7-1.5l0.5-0.9
		l0.6-1.1l0.7-1.2l0.9-1.6l1.1-1.9l0.7-1.3l0.8-1.4l0.6-1.2l0.3-0.7l0.1-0.6l0-0.5l-0.1-0.4l-0.3-0.5l-0.5-0.3l-0.6-0.1l-0.7-0.1
		l-1.3-0.1l-1.7,0l-0.8,0l-0.9-0.1l-0.9-0.2l-1.2-0.5l-0.7-0.5l-0.7-1l-0.3-0.7l-0.2-0.9l-0.1-0.8l0.1-0.8l0.2-0.7l0.3-0.6l0.4-0.7
		l0.8-1l0.7-0.6L401,18l1-0.7l1.1-0.6l2-1l1.7-0.7l2-0.7l1.6-0.5l1.2-0.4l1.4-0.5l1-0.4l0.4-0.2L414.5,12.2z"/>
	<text transform="matrix(1.0428 0 0 1 419.6517 32.9378)" class="st3 st4 st5">1</text>
</g>
<g id="Meeple_9_" transform="translate(0.251 0.25)">
	<path id="Path_1_9_" class="st2" d="M311.1,65.3c0,0-0.7-10.6,8.1-10.5s7.6,8.8,8,10.3l0.1,0.3l1.1,0.4l3.7,1.2l4.2,1.6
		c0,0,2.5,1.3,2.6,1.3c0.1,0,2.6,1.7,2.6,1.7l1.4,1.3l0.7,1l0.3,0.7l0.2,0.8l0.1,0.7v0.4l-0.1,0.8c0,0-0.2,0.7-0.2,0.7
		c0,0-0.3,0.8-0.3,0.8l-0.6,0.8l-0.6,0.5l-0.8,0.4l-0.7,0.2l-0.7,0.1l-0.6,0.1l-0.8,0l-1.7,0.1h-1c0,0-0.9,0.1-0.9,0.1
		s-0.9,0.2-0.9,0.2c-0.2,0.1-0.4,0.1-0.6,0.2c-0.1,0.1-0.2,0.2-0.3,0.2l-0.2,0.3l0,0.7l0.2,0.8l0.6,1.4l0.6,1.2l0.6,1.1l0.5,0.9
		l0.5,0.9l0.6,1.1l0.6,1.1l0.6,1.2l0.5,1l0.6,1.2l0.6,1.2l0.6,1.2l0.7,1.7l0.4,1.1l0.3,1l0.2,1l0.1,0.6v0.9l0,0.5l-0.3,0.5l-0.4,0.3
		l-0.5,0.2l-1,0.1l-1.5,0h-11.1l-1-0.3l-0.8-0.7l-0.8-1.1l-0.5-0.8l-0.6-1L323,100l-0.6-1l-1-1.7l-0.9-1.3l-0.7-0.7l-0.4-0.3l-0.3,0
		l-0.4,0.2l-0.7,0.7l-0.7,0.9l-0.7,1.1l-0.9,1.5l-0.4,0.7l-0.5,0.8l-0.8,1.3l-0.5,0.8l-0.4,0.5l-0.4,0.4l-0.5,0.3l-0.5,0.2l-0.6,0.1
		l-12.4,0l-1-0.2l-0.4-0.2l-0.4-0.5l-0.1-0.3l-0.1-0.6l0-0.6l0.2-1.3l0.3-1.2l0.5-1.3l0.4-1.1l0.6-1.3l0.7-1.5l0.5-0.9l0.6-1.1
		l0.7-1.2l0.9-1.6l1.1-1.9l0.7-1.3l0.8-1.4l0.6-1.2l0.3-0.7l0.1-0.6l0-0.5l-0.1-0.4l-0.3-0.5l-0.5-0.3l-0.6-0.1L303,81l-1.3-0.1
		l-1.7,0l-0.8,0l-0.9-0.1l-0.9-0.2l-1.2-0.5l-0.7-0.5l-0.7-1l-0.3-0.7l-0.2-0.9l-0.1-0.8l0.1-0.8l0.2-0.7l0.3-0.6l0.4-0.7l0.8-1
		l0.7-0.6l0.8-0.6l1-0.7l1.1-0.6l2-1l1.7-0.7l2-0.7l1.6-0.5l1.2-0.4l1.4-0.5l1-0.4l0.4-0.2L311.1,65.3z"/>
	<text transform="matrix(1.0428 0 0 1 316.2517 86.0385)" class="st3 st4 st5">1</text>
</g>
<g id="Meeple_8_" transform="translate(0.251 0.25)">
	<path id="Path_1_8_" class="st2" d="M363.1,65.3c0,0-0.7-10.6,8.1-10.5s7.6,8.8,8,10.3l0.1,0.3l1.1,0.4l3.7,1.2l4.2,1.6
		c0,0,2.5,1.3,2.6,1.3c0.1,0,2.6,1.7,2.6,1.7l1.4,1.3l0.7,1l0.3,0.7l0.2,0.8l0.1,0.7v0.4l-0.1,0.8c0,0-0.2,0.7-0.2,0.7
		c0,0-0.3,0.8-0.3,0.8l-0.6,0.8l-0.6,0.5l-0.8,0.4l-0.7,0.2l-0.7,0.1l-0.6,0.1l-0.8,0l-1.7,0.1h-1c0,0-0.9,0.1-0.9,0.1
		s-0.9,0.2-0.9,0.2c-0.2,0.1-0.4,0.1-0.6,0.2c-0.1,0.1-0.2,0.2-0.3,0.2l-0.2,0.3l0,0.7l0.2,0.8l0.6,1.4l0.6,1.2l0.6,1.1l0.5,0.9
		l0.5,0.9l0.6,1.1l0.6,1.1l0.6,1.2l0.5,1l0.6,1.2l0.6,1.2l0.6,1.2l0.7,1.7l0.4,1.1l0.3,1l0.2,1l0.1,0.6v0.9l0,0.5l-0.3,0.5l-0.4,0.3
		l-0.5,0.2l-1,0.1l-1.5,0h-11.1l-1-0.3l-0.8-0.7l-0.8-1.1l-0.5-0.8l-0.6-1L375,100l-0.6-1l-1-1.7l-0.9-1.3l-0.7-0.7l-0.4-0.3l-0.3,0
		l-0.4,0.2l-0.7,0.7l-0.7,0.9l-0.7,1.1l-0.9,1.5l-0.4,0.7l-0.5,0.8l-0.8,1.3l-0.5,0.8l-0.4,0.5l-0.4,0.4l-0.5,0.3l-0.5,0.2l-0.6,0.1
		l-12.4,0l-1-0.2l-0.4-0.2l-0.4-0.5l-0.1-0.3l-0.1-0.6l0-0.6l0.2-1.3l0.3-1.2l0.5-1.3l0.4-1.1l0.6-1.3l0.7-1.5l0.5-0.9l0.6-1.1
		l0.7-1.2l0.9-1.6l1.1-1.9l0.7-1.3l0.8-1.4l0.6-1.2l0.3-0.7l0.1-0.6l0-0.5l-0.1-0.4l-0.3-0.5l-0.5-0.3l-0.6-0.1L355,81l-1.3-0.1
		l-1.7,0l-0.8,0l-0.9-0.1l-0.9-0.2l-1.2-0.5l-0.7-0.5l-0.7-1l-0.3-0.7l-0.2-0.9l-0.1-0.8l0.1-0.8l0.2-0.7l0.3-0.6l0.4-0.7l0.8-1
		l0.7-0.6l0.8-0.6l1-0.7l1.1-0.6l2-1l1.7-0.7l2-0.7l1.6-0.5l1.2-0.4l1.4-0.5l1-0.4l0.4-0.2L363.1,65.3z"/>
	<text transform="matrix(1.0428 0 0 1 368.2517 86.0385)" class="st3 st4 st5">1</text>
</g>
<g id="Meeple_7_" transform="translate(0.251 0.25)">
	<path id="Path_1_7_" class="st2" d="M415.1,65.3c0,0-0.7-10.6,8.1-10.5s7.6,8.8,8,10.3l0.1,0.3l1.1,0.4l3.7,1.2l4.2,1.6
		c0,0,2.5,1.3,2.6,1.3c0.1,0,2.6,1.7,2.6,1.7l1.4,1.3l0.7,1l0.3,0.7l0.2,0.8l0.1,0.7v0.4l-0.1,0.8c0,0-0.2,0.7-0.2,0.7
		c0,0-0.3,0.8-0.3,0.8l-0.6,0.8l-0.6,0.5l-0.8,0.4l-0.7,0.2l-0.7,0.1l-0.6,0.1l-0.8,0l-1.7,0.1h-1c0,0-0.9,0.1-0.9,0.1
		s-0.9,0.2-0.9,0.2c-0.2,0.1-0.4,0.1-0.6,0.2c-0.1,0.1-0.2,0.2-0.3,0.2l-0.2,0.3l0,0.7l0.2,0.8l0.6,1.4l0.6,1.2l0.6,1.1l0.5,0.9
		l0.5,0.9l0.6,1.1l0.6,1.1l0.6,1.2l0.5,1l0.6,1.2l0.6,1.2l0.6,1.2l0.7,1.7l0.4,1.1l0.3,1l0.2,1l0.1,0.6v0.9l0,0.5l-0.3,0.5l-0.4,0.3
		l-0.5,0.2l-1,0.1l-1.5,0h-11.1l-1-0.3l-0.8-0.7l-0.8-1.1l-0.5-0.8l-0.6-1L427,100l-0.6-1l-1-1.7l-0.9-1.3l-0.7-0.7l-0.4-0.3l-0.3,0
		l-0.4,0.2l-0.7,0.7l-0.7,0.9l-0.7,1.1l-0.9,1.5l-0.4,0.7l-0.5,0.8l-0.8,1.3l-0.5,0.8l-0.4,0.5l-0.4,0.4l-0.5,0.3l-0.5,0.2l-0.6,0.1
		l-12.4,0l-1-0.2l-0.4-0.2l-0.4-0.5l-0.1-0.3l-0.1-0.6l0-0.6l0.2-1.3l0.3-1.2l0.5-1.3l0.4-1.1l0.6-1.3l0.7-1.5l0.5-0.9l0.6-1.1
		l0.7-1.2l0.9-1.6l1.1-1.9l0.7-1.3l0.8-1.4l0.6-1.2l0.3-0.7l0.1-0.6l0-0.5l-0.1-0.4l-0.3-0.5l-0.5-0.3l-0.6-0.1L407,81l-1.3-0.1
		l-1.7,0l-0.8,0l-0.9-0.1l-0.9-0.2l-1.2-0.5l-0.7-0.5l-0.7-1l-0.3-0.7l-0.2-0.9l-0.1-0.8l0.1-0.8l0.2-0.7l0.3-0.6l0.4-0.7l0.8-1
		l0.7-0.6l0.8-0.6l1-0.7l1.1-0.6l2-1l1.7-0.7l2-0.7l1.6-0.5l1.2-0.4l1.4-0.5l1-0.4l0.4-0.2L415.1,65.3z"/>
	<text transform="matrix(1.0428 0 0 1 420.2517 86.0385)" class="st3 st4 st5">1</text>
</g>
</svg>
